<?xml version="1.0" encoding="UTF-8"?>
<svg width="36px" height="36px" viewBox="0 0 36 36" version="1.1" xmlns="http://www.w3.org/2000/svg" xmlns:xlink="http://www.w3.org/1999/xlink">
    <!-- Generator: Sketch 50.2 (55047) - http://www.bohemiancoding.com/sketch -->
    <title>icon_显示</title>
    <desc>Created with Sketch.</desc>
    <defs></defs>
    <g id="Page-1" stroke="none" stroke-width="1" fill="none" fill-rule="evenodd">
        <g id="登录-不记住账号密码" transform="translate(-664.000000, -557.000000)" stroke="#4A5165" stroke-width="2">
            <g id="Group-4" transform="translate(664.000000, 557.000000)">
                <path d="M1,18 C3.63914096,11.5638111 10.2554283,7 18,7 C25.7445717,7 32.360859,11.5638111 35,18 C32.360859,24.4361889 25.7445717,29 18,29 C10.2554283,29 3.63914096,24.4361889 1,18 Z" id="Combined-Shape"></path>
                <path d="M23.1840163,21.0228588 C23.7027429,20.1351925 24,19.1023103 24,18 C24,14.6862915 21.3137085,12 18,12 C14.6862915,12 12,14.6862915 12,18 C12,21.3137085 14.6862915,24 18,24 C19.1113844,24 20.1521929,23.6978288 21.0447508,23.1711611" id="Oval" stroke-linecap="round"></path>
            </g>
        </g>
    </g>
</svg>