<?xml version="1.0" encoding="UTF-8"?>
<svg width="36px" height="36px" viewBox="0 0 36 36" version="1.1" xmlns="http://www.w3.org/2000/svg" xmlns:xlink="http://www.w3.org/1999/xlink">
    <!-- Generator: Sketch 50.2 (55047) - http://www.bohemiancoding.com/sketch -->
    <title>icon_隐藏</title>
    <desc>Created with Sketch.</desc>
    <defs></defs>
    <g id="Page-1" stroke="none" stroke-width="1" fill="none" fill-rule="evenodd">
        <g id="登录" transform="translate(-664.000000, -557.000000)" fill="#4A5165" fill-rule="nonzero">
            <g id="眼睛(1)" transform="translate(664.000000, 557.000000)">
                <path d="M4.92895484,23.0317888 C4.82887577,23.0317888 4.67875716,23.0317888 4.57867809,22.9788058 C4.07828273,22.7668736 3.77804551,22.1840602 3.97820366,21.6012468 L6.02982464,15.6141635 C6.22998278,15.0843331 6.78041768,14.7664349 7.33085257,14.978367 C7.83124793,15.1902992 8.13148515,15.7731126 7.93132701,16.355926 L5.87970603,22.3430093 C5.72958742,22.7668736 5.32927113,23.0317888 4.92895484,23.0317888 Z M13.2855574,26.5816524 L13.1354388,26.5816524 C12.5850039,26.4756863 12.2347271,25.9458559 12.3348062,25.3630425 L13.3856364,19.111044 C13.4857155,18.5282306 13.9861109,18.1573493 14.5365458,18.2633154 C15.0869807,18.3692815 15.4372574,18.8991119 15.3371783,19.4819253 L14.2863481,25.7339238 C14.186269,26.2107711 13.7359132,26.5816524 13.2855574,26.5816524 Z M22.6929902,26.5816524 C22.1925948,26.5816524 21.7922785,26.2107711 21.6921994,25.6809407 L20.6413692,19.4289422 C20.5412901,18.8461288 20.8915669,18.3162984 21.4420018,18.2103324 C21.9924366,18.1043663 22.492832,18.4752476 22.5929111,19.058061 L23.6937809,25.3630425 C23.7938599,25.9458559 23.4435832,26.4756863 22.8931483,26.5816524 L22.6929902,26.5816524 Z M31.0495927,23.0317888 C30.6492764,23.0317888 30.2489601,22.7668736 30.0988415,22.3430093 L28.0472205,16.355926 C27.8470624,15.8260956 28.1472996,15.1902992 28.6476949,14.978367 C29.1480903,14.7664349 29.7485647,15.0843331 29.9487229,15.6141635 L32.0003439,21.6012468 C32.200502,22.1310772 31.9002648,22.7668736 31.3998694,22.9788058 C31.2997904,22.9788058 31.1496718,23.0317888 31.0495927,23.0317888 Z M17.9892738,20.5945691 C5.9797851,20.5945691 2.22681989,11.8523678 2.07670128,11.4814865 C1.87654314,10.9516561 2.07670128,10.3158597 2.57709665,10.1039275 C3.07749201,9.89199536 3.67796644,10.1039275 3.87812458,10.6337579 C4.02824319,10.9516561 7.33085257,18.4752476 17.9892738,18.4752476 C28.6476949,18.4752476 31.9503043,10.9516561 32.1004229,10.6337579 C32.3005811,10.1039275 32.9010555,9.83901232 33.4014509,10.1039275 C33.9018462,10.3158597 34.1520439,10.9516561 33.9018462,11.4814865 C33.7517276,11.8523678 29.9987624,20.5945691 17.9892738,20.5945691 Z" id="Shape"></path>
            </g>
        </g>
    </g>
</svg>